<svg width="48" height="48" viewBox="0 0 48 48" fill="none" xmlns="http://www.w3.org/2000/svg">
<path d="M6 17.7333C6 15.8477 6 14.9049 6.58579 14.3191C7.17157 13.7333 8.11438 13.7333 10 13.7333H14.1838C15.2134 13.7333 15.7282 13.7333 16.1651 13.5038C16.6019 13.2742 16.894 12.8503 17.478 12.0023L17.6649 11.731C18.2489 10.8831 18.5409 10.4591 18.9778 10.2296C19.4146 10 19.9294 10 20.9591 10H27.0409C28.0706 10 28.5854 10 29.0222 10.2296C29.4591 10.4591 29.7511 10.8831 30.3351 11.731L30.522 12.0023C31.106 12.8503 31.3981 13.2742 31.8349 13.5038C32.2718 13.7333 32.7866 13.7333 33.8162 13.7333H38C39.8856 13.7333 40.8284 13.7333 41.4142 14.3191C42 14.9049 42 15.8477 42 17.7333V34C42 35.8856 42 36.8284 41.4142 37.4142C40.8284 38 39.8856 38 38 38H10C8.11438 38 7.17157 38 6.58579 37.4142C6 36.8284 6 35.8856 6 34V17.7333Z" fill="#D9D9D9" stroke="#052140" stroke-width="2" stroke-linecap="round"/>
<path d="M30.2853 25.1429C30.2853 28.6144 27.4711 31.4286 23.9996 31.4286C20.5281 31.4286 17.7139 28.6144 17.7139 25.1429C17.7139 21.6714 20.5281 18.8572 23.9996 18.8572C27.4711 18.8572 30.2853 21.6714 30.2853 25.1429Z" fill="#D9D9D9" stroke="#052140" stroke-width="2" stroke-linecap="round"/>
<path d="M33.1426 20C33.1426 19.3689 33.6543 18.8572 34.2854 18.8572C34.9166 18.8572 35.4283 19.3689 35.4283 20C35.4283 20.6312 34.9166 21.1429 34.2854 21.1429C33.6543 21.1429 33.1426 20.6312 33.1426 20Z" fill="#D9D9D9"/>
</svg>

