
<svg width="80" height="80" viewBox="0 0 80 80" fill="none" xmlns="http://www.w3.org/2000/svg">
<path d="M78.1625 20.5875C77.8139 20.236 77.3991 19.957 76.9422 19.7667C76.4852 19.5763 75.995 19.4783 75.5 19.4783C75.005 19.4783 74.5148 19.5763 74.0578 19.7667C73.6009 19.957 73.1861 20.236 72.8375 20.5875L68 25.4625V4.5C68 3.50544 67.6049 2.55161 66.9017 1.84835C66.1984 1.14509 65.2446 0.75 64.25 0.75C63.2554 0.75 62.3016 1.14509 61.5983 1.84835C60.8951 2.55161 60.5 3.50544 60.5 4.5V25.4625L55.6625 20.5875C54.9564 19.8814 53.9986 19.4847 53 19.4847C52.0014 19.4847 51.0436 19.8814 50.3375 20.5875C49.6314 21.2936 49.2347 22.2514 49.2347 23.25C49.2347 24.2486 49.6314 25.2064 50.3375 25.9125L61.5875 37.1625C61.9441 37.5039 62.3647 37.7715 62.825 37.95C63.2739 38.1484 63.7592 38.2509 64.25 38.2509C64.7408 38.2509 65.2261 38.1484 65.675 37.95C66.1353 37.7715 66.5559 37.5039 66.9125 37.1625L78.1625 25.9125C78.514 25.5639 78.793 25.1491 78.9833 24.6922C79.1737 24.2352 79.2717 23.745 79.2717 23.25C79.2717 22.755 79.1737 22.2648 78.9833 21.8078C78.793 21.3509 78.514 20.9361 78.1625 20.5875ZM64.25 45.75C63.2554 45.75 62.3016 46.1451 61.5983 46.8484C60.8951 47.5516 60.5 48.5054 60.5 49.5V50.925L54.95 45.375C52.9903 43.4308 50.3417 42.3398 47.5813 42.3398C44.8208 42.3398 42.1722 43.4308 40.2125 45.375L37.5875 48L28.2875 38.7C26.3004 36.8085 23.6621 35.7536 20.9188 35.7536C18.1754 35.7536 15.5371 36.8085 13.55 38.7L8 44.25V23.25C8 22.2554 8.39509 21.3016 9.09835 20.5984C9.80161 19.8951 10.7554 19.5 11.75 19.5H41.75C42.7446 19.5 43.6984 19.1049 44.4016 18.4016C45.1049 17.6984 45.5 16.7446 45.5 15.75C45.5 14.7554 45.1049 13.8016 44.4016 13.0984C43.6984 12.3951 42.7446 12 41.75 12H11.75C8.76631 12 5.90483 13.1853 3.79505 15.295C1.68526 17.4048 0.5 20.2663 0.5 23.25V68.25C0.5 71.2337 1.68526 74.0952 3.79505 76.205C5.90483 78.3147 8.76631 79.5 11.75 79.5H56.75C59.7337 79.5 62.5952 78.3147 64.705 76.205C66.8147 74.0952 68 71.2337 68 68.25V49.5C68 48.5054 67.6049 47.5516 66.9017 46.8484C66.1984 46.1451 65.2446 45.75 64.25 45.75ZM11.75 72C10.7554 72 9.80161 71.6049 9.09835 70.9017C8.39509 70.1984 8 69.2446 8 68.25V54.8625L18.875 43.9875C19.4259 43.4625 20.1577 43.1696 20.9188 43.1696C21.6798 43.1696 22.4116 43.4625 22.9625 43.9875L34.85 55.875L50.975 72H11.75ZM60.5 68.25C60.4946 68.9678 60.2579 69.6648 59.825 70.2375L42.9125 53.25L45.5375 50.625C45.8064 50.3506 46.1273 50.1326 46.4814 49.9838C46.8356 49.835 47.2159 49.7583 47.6 49.7583C47.9842 49.7583 48.3644 49.835 48.7186 49.9838C49.0728 50.1326 49.3937 50.3506 49.6625 50.625L60.5 61.5375V68.25Z" fill="#D3E7FF"/>
</svg>

