<svg width="20" height="20" viewBox="0 0 20 20" fill="none" xmlns="http://www.w3.org/2000/svg">
<path d="M8.29289 10.2929C7.90237 10.6834 7.90237 11.3166 8.29289 11.7071C8.68342 12.0976 9.31658 12.0976 9.70711 11.7071L8.29289 10.2929ZM16.7071 4.7071L17.4142 4L16 2.58578L15.2929 3.29289L16.7071 4.7071ZM17.2929 1.29289L16.5858 2L18 3.41421L18.7071 2.70711L17.2929 1.29289ZM19.7071 1.70711C20.0976 1.31658 20.0976 0.683417 19.7071 0.292893C19.3166 -0.097631 18.6834 -0.0976309 18.2929 0.292893L19.7071 1.70711ZM9.70711 11.7071L16.7071 4.7071L15.2929 3.29289L8.29289 10.2929L9.70711 11.7071ZM18.7071 2.70711L19.7071 1.70711L18.2929 0.292893L17.2929 1.29289L18.7071 2.70711Z" fill="#052140"/>
<path d="M8 5H5.00001C3.11439 5 2.17158 5 1.58579 5.58579C1.00001 6.17157 1.00001 7.11438 1.00001 9L1 15C1 16.8856 1 17.8284 1.58579 18.4142C2.17157 19 3.11438 19 5 19H11C12.8856 19 13.8284 19 14.4142 18.4142C15 17.8284 15 16.8856 15 15V12" stroke="#052140" stroke-width="2" stroke-linecap="round"/>
</svg>
