<svg width="22" height="22" viewBox="0 0 22 22" fill="none" xmlns="http://www.w3.org/2000/svg">
<path d="M16.364 2.13493C16.6926 1.80637 16.8569 1.64209 17.0207 1.53265C17.6933 1.08324 18.5703 1.08324 19.2429 1.53265C19.4067 1.64209 19.571 1.80637 19.8996 2.13493V2.13493C20.2281 2.46349 20.3924 2.62777 20.5018 2.79155C20.9513 3.46415 20.9513 4.34124 20.5018 5.01384C20.3924 5.17762 20.2281 5.3419 19.8996 5.67046L9.06597 16.5041C8.80142 16.7686 8.66915 16.9009 8.51565 17.0059C8.36215 17.1109 8.19093 17.1862 7.84849 17.3369L6.92923 17.7414C4.9427 18.6154 3.94943 19.0525 3.46572 18.5688C2.98201 18.0851 3.41905 17.0918 4.29313 15.1053L4.6976 14.186C4.84827 13.8436 4.92361 13.6723 5.02861 13.5188C5.13362 13.3653 5.26589 13.2331 5.53043 12.9685L16.364 2.13493Z" stroke="#8C8C8C" stroke-width="2" stroke-linecap="round"/>
<path d="M13.6211 4.8418L17.1566 8.37733" stroke="#8C8C8C" stroke-width="2"/>
</svg>
