<svg width="25" height="24" viewBox="0 0 25 24" fill="none" xmlns="http://www.w3.org/2000/svg">
<g clip-path="url(#clip0_1_21)">
<path d="M3.66666 10.238C3.66666 8.95583 3.66666 8.31475 3.94972 7.84095C4.1194 7.55691 4.35691 7.31941 4.64095 7.14972C5.11475 6.86667 5.75582 6.86667 7.03797 6.86667H7.67622C7.75639 6.86667 7.79648 6.86667 7.83437 6.86523C8.43853 6.84232 8.99991 6.54733 9.36149 6.06276C9.38416 6.03237 9.4069 5.99936 9.45238 5.93333V5.93333C9.49786 5.86731 9.5206 5.83429 9.54327 5.80391C9.90485 5.31934 10.4662 5.02435 11.0704 5.00144C11.1083 5 11.1484 5 11.2285 5H14.1048C14.185 5 14.2251 5 14.2629 5.00144C14.8671 5.02435 15.4285 5.31934 15.7901 5.80391C15.8127 5.83429 15.8355 5.86731 15.8809 5.93333V5.93333C15.9264 5.99936 15.9492 6.03237 15.9718 6.06276C16.3334 6.54733 16.8948 6.84232 17.499 6.86523C17.5368 6.86667 17.5769 6.86667 17.6571 6.86667H18.2954C19.5775 6.86667 20.2186 6.86667 20.6924 7.14972C20.9764 7.31941 21.2139 7.55691 21.3836 7.84095C21.6667 8.31475 21.6667 8.95583 21.6667 10.238V15C21.6667 16.8856 21.6667 17.8284 21.0809 18.4142C20.4951 19 19.5523 19 17.6667 19H7.66666C5.78105 19 4.83824 19 4.25245 18.4142C3.66666 17.8284 3.66666 16.8856 3.66666 15V10.238Z" stroke="#0176FF" stroke-width="2" stroke-linecap="round"/>
<path d="M15.8095 12.5713C15.8095 14.3071 14.4024 15.7142 12.6667 15.7142C10.9309 15.7142 9.52381 14.3071 9.52381 12.5713C9.52381 10.8356 10.9309 9.42847 12.6667 9.42847C14.4024 9.42847 15.8095 10.8356 15.8095 12.5713Z" stroke="#0176FF" stroke-width="2" stroke-linecap="round"/>
<path d="M17.2381 9.9999C17.2381 9.6843 17.4939 9.42847 17.8095 9.42847C18.1251 9.42847 18.3809 9.6843 18.3809 9.9999C18.3809 10.3155 18.1251 10.5713 17.8095 10.5713C17.4939 10.5713 17.2381 10.3155 17.2381 9.9999Z" fill="#0176FF"/>
</g>
<defs>
<clipPath id="clip0_1_21">
<rect width="24" height="24" fill="white" transform="translate(0.666664)"/>
</clipPath>
</defs>
</svg>
