<svg width="20" height="20" viewBox="0 0 20 20" fill="none" xmlns="http://www.w3.org/2000/svg">
<path d="M16.5 14.5V14C16.5 12.1144 16.5 11.1716 15.9142 10.5858C15.3284 10 14.3856 10 12.5 10H10M3.5 14.5V14C3.5 12.1144 3.5 11.1716 4.08579 10.5858C4.67157 10 5.61438 10 7.5 10H10M10 10V6" stroke="#0176FF" stroke-width="2"/>
<path d="M12.5 3.5C12.5 4.88071 11.3807 6 10 6C8.61929 6 7.5 4.88071 7.5 3.5C7.5 2.11929 8.61929 1 10 1C11.3807 1 12.5 2.11929 12.5 3.5Z" stroke="#0176FF" stroke-width="2"/>
<path d="M6 16.5C6 17.8807 4.88071 19 3.5 19C2.11929 19 1 17.8807 1 16.5C1 15.1193 2.11929 14 3.5 14C4.88071 14 6 15.1193 6 16.5Z" stroke="#0176FF" stroke-width="2"/>
<path d="M19 16.5C19 17.8807 17.8807 19 16.5 19C15.1193 19 14 17.8807 14 16.5C14 15.1193 15.1193 14 16.5 14C17.8807 14 19 15.1193 19 16.5Z" stroke="#0176FF" stroke-width="2"/>
</svg>
