<svg width="69" height="50" viewBox="0 0 69 50" fill="none" xmlns="http://www.w3.org/2000/svg">
<g clip-path="url(#clip0_444_9868)">
<path d="M10.8358 0C4.80151 0.775741 0 11.6362 0 24.9647C0 38.2934 4.80151 49.1537 10.8358 49.9295V50H37V0H10.8358Z" fill="#0176FF"/>
<path d="M12.7471 16.4673H15.1317C15.1317 12.974 15.1944 10.8529 15.3199 10.2292C15.5081 8.732 16.1356 7.60913 17.2024 6.73579C18.2692 5.86245 19.7752 5.42578 21.7205 5.42578C23.101 5.42578 24.7325 5.7377 26.4896 6.36151V11.4768C25.4856 11.2273 24.7325 11.0401 24.1051 11.0401C23.2893 11.0401 22.7245 11.2273 22.3481 11.5392C22.097 11.7887 21.9715 12.2877 21.9715 13.0363V16.4049H26.2386V22.0816H21.9715V43.1666H20.6653C17.6091 43.1666 15.1317 40.7037 15.1317 37.6656V22.144H12.7471V16.4673Z" fill="white"/>
<path fill-rule="evenodd" clip-rule="evenodd" d="M29 24.9647C29 11.6362 31.645 0.775741 34.9691 0H38.2002H47.6401H57.5217C63.914 0.775741 69 11.6362 69 24.9647C69 38.2934 63.914 49.1537 57.5217 49.9295V50L47.6401 49.9683V50H34.9691V49.9295C31.645 49.1537 29 38.2934 29 24.9647Z" fill="#FF0000"/>
<path d="M54.6882 16.4676H61.4649V43.2292H54.6882V40.422C53.3705 41.6697 52.0527 42.5431 50.7349 43.1045C49.4171 43.666 47.9738 43.9155 46.405 43.9155C42.9537 43.9155 39.9416 42.6054 37.3689 39.923C34.8588 37.2406 33.541 33.9344 33.541 29.942C33.541 25.8248 34.7961 22.3938 37.2434 19.7738C39.6906 17.1538 42.7027 15.8438 46.2168 15.8438C47.8483 15.8438 49.3544 16.1556 50.7349 16.7795C52.1782 17.4033 53.4332 18.2767 54.6882 19.5243V16.4676ZM47.5973 22.0196C45.5265 22.0196 43.7695 22.7681 42.3889 24.2029C41.0084 25.7 40.3182 27.5715 40.3182 29.8172C40.3182 32.1254 41.0084 34.0592 42.4517 35.4939C43.8322 36.9911 45.5892 37.7396 47.6601 37.7396C49.7936 37.7396 51.5506 36.9911 52.9311 35.5563C54.3117 34.0592 55.002 32.1878 55.002 29.8172C55.002 27.5091 54.3117 25.5753 52.9311 24.1405C51.4879 22.7057 49.7308 22.0196 47.5973 22.0196Z" fill="white"/>
</g>
<defs>
<clipPath id="clip0_444_9868">
<rect width="69" height="50" fill="white"/>
</clipPath>
</defs>
</svg>
