<svg width="150" height="50" viewBox="0 0 150 50" fill="none" xmlns="http://www.w3.org/2000/svg">
<g clip-path="url(#clip0_443_19160)">
<path d="M23.7008 0C10.5022 0.775741 0 11.6362 0 24.9647C0 38.2934 10.5022 49.1537 23.7008 49.9295V50H80.9288V0H23.7008Z" fill="#0176FF"/>
<path fill-rule="evenodd" clip-rule="evenodd" d="M67.4902 24.9647C67.4902 11.6362 72.9446 0.775741 79.7995 0H86.4626H105.929H126.306C139.488 0.775741 149.976 11.6362 149.976 24.9647C149.976 38.2934 139.488 49.1537 126.306 49.9295V50L105.929 49.9683V50H79.7995V49.9295C72.9446 49.1537 67.4902 38.2934 67.4902 24.9647Z" fill="#FF0000"/>
<path d="M12.7471 16.4673H15.1317C15.1317 12.974 15.1944 10.8529 15.3199 10.2292C15.5081 8.732 16.1356 7.60913 17.2024 6.73579C18.2692 5.86245 19.7752 5.42578 21.7205 5.42578C23.101 5.42578 24.7325 5.7377 26.4896 6.36151V11.4768C25.4856 11.2273 24.7325 11.0401 24.1051 11.0401C23.2893 11.0401 22.7245 11.2273 22.3481 11.5392C22.097 11.7887 21.9715 12.2877 21.9715 13.0363V16.4049H26.2386V22.0816H21.9715V43.1666H20.6653C17.6091 43.1666 15.1317 40.7037 15.1317 37.6656V22.144H12.7471V16.4673Z" fill="white"/>
<path d="M28.874 16.4668H35.6512V43.2284H28.874V16.4668Z" fill="white"/>
<path d="M41.2988 16.4654H48.0759V19.2102C49.5819 17.9002 51.0252 17.0268 52.2175 16.5278C53.4098 16.0288 54.7276 15.7793 56.0454 15.7793C58.7437 15.7793 61.0027 16.715 62.8224 18.5865C64.3913 20.146 65.1443 22.5164 65.1443 25.5731V43.2271H58.4926V31.4993C58.4926 28.3179 58.3671 26.197 58.0534 25.1365C57.7396 24.076 57.2377 23.2651 56.5473 22.7659C55.8571 22.2669 54.9786 21.955 53.9118 21.955C52.5312 21.955 51.4018 22.3917 50.3977 23.3274C49.3937 24.2631 48.7662 25.5107 48.3896 27.0703C48.2014 27.8813 48.0759 29.6903 48.0759 32.4975V43.2271H41.2988V16.4654Z" fill="white"/>
<path d="M92.6882 16.4676H99.4649V43.2292H92.6882V40.422C91.3705 41.6697 90.0527 42.5431 88.7349 43.1045C87.4171 43.666 85.9738 43.9155 84.405 43.9155C80.9537 43.9155 77.9416 42.6054 75.3689 39.923C72.8588 37.2406 71.541 33.9344 71.541 29.942C71.541 25.8248 72.7961 22.3938 75.2434 19.7738C77.6906 17.1538 80.7027 15.8438 84.2168 15.8438C85.8483 15.8438 87.3544 16.1556 88.7349 16.7795C90.1782 17.4033 91.4332 18.2767 92.6882 19.5243V16.4676ZM85.5973 22.0196C83.5265 22.0196 81.7695 22.7681 80.3889 24.2029C79.0084 25.7 78.3182 27.5715 78.3182 29.8172C78.3182 32.1254 79.0084 34.0592 80.4517 35.4939C81.8322 36.9911 83.5892 37.7396 85.6601 37.7396C87.7936 37.7396 89.5506 36.9911 90.9311 35.5563C92.3117 34.0592 93.002 32.1878 93.002 29.8172C93.002 27.5091 92.3117 25.5753 90.9311 24.1405C89.4879 22.7057 87.7308 22.0196 85.5973 22.0196Z" fill="white"/>
<path d="M101.878 16.4668H108.656V43.2284H101.878V16.4668Z" fill="white"/>
<path d="M131.72 6.17383H132.173C135.666 6.17383 138.497 8.98854 138.497 12.4607V37.0039C138.497 40.4761 135.666 43.2908 132.173 43.2908H131.72V40.4836C130.402 41.7312 129.085 42.6046 127.767 43.166C126.45 43.7275 125.006 43.977 123.437 43.977C119.986 43.977 116.973 42.667 114.401 39.9846C111.891 37.3022 110.573 33.996 110.573 30.0035C110.573 25.8863 111.828 22.4554 114.276 19.8354C116.722 17.2153 119.735 15.9053 123.249 15.9053C124.881 15.9053 126.386 16.2173 127.767 16.8411C129.211 17.4648 130.466 18.3382 131.72 19.5859V6.17383ZM124.63 22.0188C122.558 22.0188 120.802 22.7673 119.421 24.2021C118.041 25.6992 117.35 27.5706 117.35 29.8164C117.35 32.1246 118.041 34.0583 119.484 35.4931C120.865 36.9903 122.622 37.7389 124.692 37.7389C126.826 37.7389 128.583 36.9903 129.964 35.5555C131.344 34.0583 132.034 32.1869 132.034 29.8164C132.034 27.5082 131.344 25.5745 129.964 24.1397C128.52 22.7049 126.763 22.0188 124.63 22.0188Z" fill="white"/>
<path d="M105.534 12.6715C107.553 12.6715 109.19 11.0442 109.19 9.03692C109.19 7.0296 107.553 5.40234 105.534 5.40234C103.515 5.40234 101.878 7.0296 101.878 9.03692C101.878 11.0442 103.515 12.6715 105.534 12.6715Z" fill="white"/>
</g>
<defs>
<clipPath id="clip0_443_19160">
<rect width="150" height="50" fill="white"/>
</clipPath>
</defs>
</svg>
