<svg width="20" height="21" viewBox="0 0 20 21" fill="none" xmlns="http://www.w3.org/2000/svg">
<path d="M2.58579 19.4142L1.87868 20.1213L2.58579 19.4142ZM17.4142 19.4142L16.7071 18.7071L17.4142 19.4142ZM17 9V16H19V9H17ZM14 19H6V21H14V19ZM3 16V9H1V16H3ZM6 19C5.02892 19 4.40121 18.9979 3.9387 18.9357C3.50496 18.8774 3.36902 18.7832 3.29289 18.7071L1.87868 20.1213C2.38834 20.631 3.01669 20.8297 3.67221 20.9179C4.29896 21.0021 5.08546 21 6 21V19ZM1 16C1 16.9145 0.997876 17.701 1.08214 18.3278C1.17027 18.9833 1.36902 19.6117 1.87868 20.1213L3.29289 18.7071C3.21677 18.631 3.12262 18.495 3.06431 18.0613C3.00212 17.5988 3 16.9711 3 16H1ZM17 16C17 16.9711 16.9979 17.5988 16.9357 18.0613C16.8774 18.495 16.7832 18.631 16.7071 18.7071L18.1213 20.1213C18.631 19.6117 18.8297 18.9833 18.9179 18.3278C19.0021 17.701 19 16.9145 19 16H17ZM14 21C14.9145 21 15.701 21.0021 16.3278 20.9179C16.9833 20.8297 17.6117 20.631 18.1213 20.1213L16.7071 18.7071C16.631 18.7832 16.495 18.8774 16.0613 18.9357C15.5988 18.9979 14.9711 19 14 19V21Z" fill="#052140"/>
<path d="M1 10L7.17158 3.82842C8.50491 2.49509 9.17157 1.82843 10 1.82843C10.8284 1.82843 11.4951 2.49509 12.8284 3.82843L19 10" stroke="#052140" stroke-width="2" stroke-linecap="round"/>
<path d="M15 3.5C15 3.25335 15.0005 3.11844 15.0072 3.02092C15.0075 3.01638 15.0078 3.01212 15.0081 3.00813C15.0121 3.00782 15.0164 3.0075 15.0209 3.0072C15.1184 3.00054 15.2533 3 15.5 3C15.7467 3 15.8816 3.00054 15.9791 3.0072C15.9836 3.0075 15.9879 3.00782 15.9919 3.00813C15.9922 3.01212 15.9925 3.01638 15.9928 3.02092C15.9995 3.11844 16 3.25335 16 3.5V6.29674L15 5.13008V3.5Z" stroke="#052140" stroke-width="2"/>
</svg>
