<svg width="17" height="21" viewBox="0 0 17 21" fill="none" xmlns="http://www.w3.org/2000/svg">
<path d="M16 20.0005L16 18.5505C16 17.5739 16 17.0855 15.8874 16.6862C15.604 15.6816 14.8189 14.8964 13.8143 14.6131C13.415 14.5005 12.9266 14.5005 11.95 14.5005H5.05C4.07337 14.5005 3.58505 14.5005 3.18568 14.6131C2.18108 14.8964 1.39596 15.6816 1.11263 16.6862C1 17.0855 0.999999 17.5739 0.999999 18.5505L0.999999 20.0005M13.2 6.06061C13.2 8.30538 11.3196 10.1251 9 10.1251C6.6804 10.1251 4.8 8.30538 4.8 6.06061C4.8 3.81584 6.6804 1.99609 9 1.99609C11.3196 1.99609 13.2 3.81584 13.2 6.06061Z" stroke="#052140" stroke-width="2" stroke-linecap="round" stroke-linejoin="round"/>
</svg>
