<svg width="20" height="20" viewBox="0 0 20 20" fill="none" xmlns="http://www.w3.org/2000/svg">
<path d="M19 19V18.55C19 17.5734 19 17.085 18.8874 16.6857C18.604 15.6811 17.8189 14.896 16.8143 14.6126C16.415 14.5 15.9266 14.5 14.95 14.5H10.55C9.57337 14.5 9.08505 14.5 8.68568 14.6126C7.68108 14.896 6.89596 15.6811 6.61263 16.6857C6.5 17.085 6.5 17.5734 6.5 18.55V19" stroke="#052140" stroke-width="2" stroke-linecap="round" stroke-linejoin="round"/>
<path d="M1 15.5V13.9C1 13.0633 1 12.6449 1.08289 12.2997C1.34624 11.2027 2.20272 10.3462 3.29966 10.0829C3.64493 10 4.06328 10 4.9 10H5" stroke="#052140" stroke-width="2" stroke-linecap="round" stroke-linejoin="round"/>
<path d="M16.5 7.5C16.5 9.433 14.933 11 13 11C11.067 11 9.5 9.433 9.5 7.5C9.5 5.567 11.067 4 13 4C14.933 4 16.5 5.567 16.5 7.5Z" stroke="#052140" stroke-width="2"/>
<path d="M9 2.38038C8.41368 1.54836 7.41108 1 6.27273 1C4.46525 1 3 2.38248 3 4.08785C3 5.43232 3.9107 6.5761 5.18182 7" stroke="#052140" stroke-width="2" stroke-linecap="round"/>
</svg>
