<svg width="16" height="20" viewBox="0 0 16 20" fill="none" xmlns="http://www.w3.org/2000/svg">
<path d="M1 5V15C1 16.8856 1 17.8284 1.58579 18.4142C2.17157 19 3.11438 19 5 19H11C12.8856 19 13.8284 19 14.4142 18.4142C15 17.8284 15 16.8856 15 15V5C15 3.11438 15 2.17157 14.4142 1.58579C13.8284 1 12.8856 1 11 1H5C3.11438 1 2.17157 1 1.58579 1.58579C1 2.17157 1 3.11438 1 5Z" stroke="#052140" stroke-width="2"/>
<path d="M5.5 13.5H8M5.5 9.5H10.5M5.5 5.5H10.5" stroke="#052140" stroke-width="2" stroke-linecap="round" stroke-linejoin="round"/>
</svg>
