<svg width="16" height="20" viewBox="0 0 16 20" fill="none" xmlns="http://www.w3.org/2000/svg">
<path d="M1 5V15C1 16.8856 1 17.8284 1.58579 18.4142C2.17157 19 3.11438 19 5 19H11C12.8856 19 13.8284 19 14.4142 18.4142C15 17.8284 15 16.8856 15 15V7.28145C15 6.40415 15 5.9655 14.827 5.57705C14.654 5.1886 14.328 4.89516 13.6759 4.30827L11.1409 2.02682C10.577 1.51929 10.295 1.26552 9.94906 1.13276C9.60309 1 9.22375 1 8.46506 1H5C3.11438 1 2.17157 1 1.58579 1.58579C1 2.17157 1 3.11438 1 5Z" stroke="#052140" stroke-width="2"/>
<path d="M9 1V3C9 4.88562 9 5.82843 9.58579 6.41421C10.1716 7 11.1144 7 13 7H15" stroke="#052140" stroke-width="2"/>
</svg>
